[img]http://img189.imageshack.us/img189/4784/kedt2e.jpg[/img]
[code]
Vampires Suck (2010)
 
http://www.imdb.com/title/tt1666186/

WORKPRINT source, missing credits
Blured studio spots

Video
ID                               : 0
Format                           : MPEG-4 Visual
Format profile                   : Advanced Simple@L5
Format settings, BVOP            : Yes
Format settings, QPel            : No
Format settings, GMC             : No warppoints
Format settings, Matrix          : Default (H.263)
Codec ID                         : XVID
Codec ID/Hint                    : XviD
Duration                         : 1h 16mn
Bit rate                         : 823 Kbps
Width                            : 640 pixels
Height                           : 272 pixels
Display aspect ratio             : 2.35:1
Frame rate                       : 23.976 fps
Resolution                       : 8 bits
Colorimetry                      : 4:2:0
Scan type                        : Progressive
Bits/(Pixel*Frame)               : 0.197
Stream size                      : 450 MiB (64%)
Writing library                  : XviD 1.1.2 (UTC 2006-11-01)

Audio
ID                               : 1
Format                           : AC-3
Format/Info                      : Audio Coding 3
Codec ID                         : 2000
Duration                         : 1h 16mn
Bit rate mode                    : Constant
Bit rate                         : 448 Kbps
Channel(s)                       : 6 channels
Channel positions                : Front: L C R, Side: L R, LFE
Sampling rate                    : 48.0 KHz
Stream size                      : 245 MiB (35%)
Alignment                        : Split accross interleaves
Interleave, duration             : 42 ms (1.00 video frame)
Interleave, preload duration     : 500 ms
[/code]
Screens:
[img]http://img441.imageshack.us/img441/9381/vlcsnap2010090410h26m07.png[/img]
[img]http://img72.imageshack.us/img72/723/vlcsnap2010090410h26m17.png[/img]
[img]http://img442.imageshack.us/img442/7615/vlcsnap2010090410h26m26.png[/img]
[img]http://img291.imageshack.us/img291/8887/vlcsnap2010090410h26m44.png[/img]
